<svg xmlns="http://www.w3.org/2000/svg" width="34" height="34" viewBox="0 0 34 34">
  <path id="Subtraction_4" data-name="Subtraction 4" d="M17,34A17,17,0,0,1,4.979,4.979,17,17,0,0,1,29.021,29.021,16.889,16.889,0,0,1,17,34ZM9.892,6.642a3.443,3.443,0,0,0-3.439,3.439V23.92a3.443,3.443,0,0,0,3.439,3.439H23.731A3.443,3.443,0,0,0,27.17,23.92V10.081a3.443,3.443,0,0,0-3.439-3.439ZM23.286,24.769H10.338a1.3,1.3,0,0,1-1.295-1.295V15.706h2.025A5.887,5.887,0,1,0,22.7,17a5.825,5.825,0,0,0-.144-1.295h2.026v7.768A1.3,1.3,0,0,1,23.286,24.769Zm-6.474-3.824a3.945,3.945,0,0,1-3.727-5.24h7.453a3.944,3.944,0,0,1-3.726,5.24Zm7.121-9.124H22.638a.648.648,0,0,1-.647-.648V9.879a.648.648,0,0,1,.647-.647h1.295a.648.648,0,0,1,.648.647v1.295A.649.649,0,0,1,23.933,11.821Z" fill="rgba(154,152,255,0.7)"/>
</svg>
