<svg xmlns="http://www.w3.org/2000/svg" width="34" height="34" viewBox="0 0 34 34">
  <path id="Subtraction_3" data-name="Subtraction 3" d="M17,34A17,17,0,0,1,4.979,4.979,17,17,0,0,1,29.021,29.021,16.889,16.889,0,0,1,17,34ZM4.858,24.82h0a14.531,14.531,0,0,0,7.874,2.3,14.449,14.449,0,0,0,14.59-14.59c0-.219,0-.445-.016-.667a10.942,10.942,0,0,0,2.572-2.652,10.251,10.251,0,0,1-2.953.794A5.107,5.107,0,0,0,29.18,7.181a10.154,10.154,0,0,1-3.255,1.238,5.133,5.133,0,0,0-8.875,3.509,5.761,5.761,0,0,0,.127,1.174A14.612,14.612,0,0,1,6.6,7.737,5.134,5.134,0,0,0,8.191,14.6a5.175,5.175,0,0,1-2.318-.65v.063a5.151,5.151,0,0,0,4.112,5.033,5.46,5.46,0,0,1-1.349.175,6.488,6.488,0,0,1-.969-.08,5.141,5.141,0,0,0,4.795,3.557A10.228,10.228,0,0,1,6.1,24.883,10.577,10.577,0,0,1,4.858,24.82Z" fill="rgba(154,152,255,0.7)"/>
</svg>
